<?xml version="1.0" standalone="no"?><!DOCTYPE svg PUBLIC "-//W3C//DTD SVG 1.1//EN" "http://www.w3.org/Graphics/SVG/1.1/DTD/svg11.dtd"><svg t="1629727148801" class="icon" viewBox="0 0 1024 1024" version="1.1" xmlns="http://www.w3.org/2000/svg" p-id="1492" xmlns:xlink="http://www.w3.org/1999/xlink" width="200" height="200"><defs><style type="text/css"></style></defs><path d="M995.085961 682.246973c-30.629999-6.858-127.314995-33.489999-229.143991-67.777997-31.769999-10.63-74.399997-26.974999-121.941995-44.233998 28.571999-49.834998 51.313998-106.525996 66.285997-168.132994H553.713978v-56.577997h191.771993v-31.546999H553.713978v-94.523997h-78.284997c-13.714999 0-13.714999 13.600999-13.714999 13.601v80.809997H267.65699v31.544999H461.599982v56.578997H301.484988v31.659999h310.628988c-11.43 39.318998-26.628999 76.236997-44.800998 109.726996C466.512982 509.99998 358.969986 482.909981 291.427989 499.59898c-43.199998 10.744-71.085997 29.716999-87.429997 49.719999C128.913995 640.985975 182.741993 780.19997 341.256987 780.19997c93.713996 0 183.998993-52.461998 253.94299-138.871995 96.113996 46.404998 311.656988 137.042995 345.142986 151.101994C848.913967 931.875964 691.199973 1023.99996 511.88598 1023.99996 229.255991 1024.11396 0 794.830969 0 512.05698S229.256991 0 511.99998 0s511.99998 229.282991 511.99998 512.05698c0 59.663998-10.17 116.926995-28.913999 170.189993zM321.214987 704.969972c-119.693995 0-155.132994-93.442996-96.029996-144.505994 19.776999-17.249999 55.902998-25.702999 75.108997-27.644999 71.105997-6.969 136.953995 19.876999 214.691992 57.459998-54.529998 70.595997-124.150995 114.690996-193.770993 114.690995z" fill="#ffffff" p-id="1493" data-spm-anchor-id="a313x.7781069.0.i8" class=""></path></svg>