<?xml version="1.0" standalone="no"?><!DOCTYPE svg PUBLIC "-//W3C//DTD SVG 1.1//EN" "http://www.w3.org/Graphics/SVG/1.1/DTD/svg11.dtd"><svg t="1629726465992" class="icon" viewBox="0 0 1024 1024" version="1.1" xmlns="http://www.w3.org/2000/svg" p-id="933" xmlns:xlink="http://www.w3.org/1999/xlink" width="200" height="200"><defs><style type="text/css"></style></defs><path d="M332.820272 413.878089c-12.797992 4.265997-29.86298-4.265997-34.128977-21.329986-4.265997-17.065989 4.265997-34.129978 21.330986-34.129978h12.798991c17.063989 0 29.86298 12.797992 29.862981 29.862981 0 12.797992-12.798992 25.596983-29.862981 25.596983z m174.913886 0c-17.064989 4.265997-34.129978-4.265997-38.395975-21.329986-4.265997-17.065989 4.266997-34.129978 21.330986-38.395975h12.798992c17.064989 0 29.86298 12.797992 29.86298 29.862981 4.265997 17.063989-8.531994 29.86298-25.596983 29.86298z m81.056947 162.114894c-12.797992 0-25.596983-8.531994-25.596983-21.330986s8.532994-25.596983 21.330986-25.596983c12.798992-4.265997 25.596983 4.265997 29.86398 17.064989 4.265997 12.797992-4.266997 25.596983-17.064989 29.86298h-8.532994z m136.51791 0c-12.797992 0-25.596983-8.531994-25.596983-21.330986s8.532994-25.596983 21.330986-25.596983c12.798992-4.265997 25.596983 4.265997 29.862981 17.064989 4.266997 12.797992-4.265997 25.596983-17.063989 29.86298h-8.532995zM657.05006 435.209075c-119.452922 0-209.042863 76.79095-209.042863 170.646889s93.855939 170.646888 209.042863 170.646888c25.596983 0 51.194967-4.265997 72.524953-12.797992l68.259955 34.129978-17.064989-59.726961c46.927969-29.86298 81.056947-81.057947 85.322944-136.517911 0-89.589941-98.121936-166.380891-209.042863-166.380891z m-243.171841-179.179883c-136.517911 0-247.437838 89.589941-247.437838 200.509869 4.265997 68.259955 38.394975 127.985916 98.121936 157.849897l-25.596983 72.524953 85.322944-42.661973c29.86398 8.531994 55.459964 12.797992 85.323944 12.797992h21.329986c-4.264997-17.063989-8.531994-34.129978-8.531994-51.193966 4.266997-110.919927 98.122936-191.977874 209.042863-187.711878h25.596983c-12.797992-89.589941-119.452922-162.114894-243.171841-162.114894z m102.387933 767.912498C234.698336 1028.207687 4.325487 797.833838 0.05849 516.266022-4.207507 234.698206 226.166342 4.325357 507.734158 0.05836s511.941665 226.107852 516.207662 507.675668V512.000025c0 281.567816-226.107852 511.941665-507.675668 511.941665z" fill="#ffffff" p-id="934"></path></svg>